<svg width="25" height="31" viewBox="0 0 25 31" fill="none" xmlns="http://www.w3.org/2000/svg">
<path d="M11.6386 6.50922C11.7993 6.50922 11.8797 6.41544 11.9199 6.26813C12.335 4.0315 12.3083 3.97796 14.6386 3.53596C14.7993 3.50922 14.8931 3.41544 14.8931 3.2547C14.8931 3.09402 14.7993 3.00024 14.6386 2.97344C12.3217 2.50476 12.3886 2.45116 11.9199 0.24133C11.8797 0.0940156 11.7993 0.000244141 11.6386 0.000244141C11.4779 0.000244141 11.3976 0.0940156 11.3574 0.24133C10.8886 2.45116 10.969 2.50476 8.63864 2.97344C8.49133 3.00024 8.38419 3.09402 8.38419 3.2547C8.38419 3.41544 8.49133 3.50922 8.63864 3.53596C10.969 4.00476 10.9422 4.0315 11.3574 6.26813C11.3976 6.41544 11.4779 6.50922 11.6386 6.50922ZM5.15653 15.7235C5.41099 15.7235 5.5851 15.5628 5.61184 15.3217C6.09402 11.7458 6.21453 11.7458 9.91099 11.036C10.1521 10.9958 10.3261 10.8351 10.3261 10.5806C10.3261 10.3396 10.1521 10.1654 9.91099 10.1253C6.21453 9.61636 6.08059 9.49579 5.61184 5.85293C5.5851 5.6119 5.41099 5.43779 5.15653 5.43779C4.91544 5.43779 4.74133 5.6119 4.71453 5.86636C4.27259 9.45562 4.08504 9.44224 0.415444 10.1253C0.174358 10.1789 0.000244141 10.3396 0.000244141 10.5806C0.000244141 10.8485 0.174358 10.9958 0.468987 11.036C4.11184 11.6253 4.27259 11.719 4.71453 15.2949C4.74133 15.5628 4.91544 15.7235 5.15653 15.7235ZM14.2369 30.5494C14.5851 30.5494 14.8396 30.2949 14.9065 29.9333C15.8574 22.594 16.8886 21.4824 24.1476 20.6788C24.5226 20.6386 24.777 20.3574 24.777 20.0092C24.777 19.661 24.5226 19.3931 24.1476 19.3396C16.8886 18.536 15.8574 17.4244 14.9065 10.0851C14.8396 9.7235 14.5851 9.48242 14.2369 9.48242C13.8886 9.48242 13.6342 9.7235 13.5806 10.0851C12.6297 17.4244 11.5851 18.536 4.3395 19.3396C3.95116 19.3931 3.6967 19.661 3.6967 20.0092C3.6967 20.3574 3.95116 20.6386 4.3395 20.6788C11.5717 21.6297 12.5761 22.6074 13.5806 29.9333C13.6342 30.2949 13.8886 30.5494 14.2369 30.5494Z" fill="#313BA7" stroke="#313BA7" stroke-width="0.00064"/>
</svg>
